<?xml version="1.0" encoding="utf-8"?>
<!-- Generator: Adobe Illustrator 16.0.0, SVG Export Plug-In . SVG Version: 6.00 Build 0)  -->
<!DOCTYPE svg PUBLIC "-//W3C//DTD SVG 1.1//EN" "http://www.w3.org/Graphics/SVG/1.1/DTD/svg11.dtd">
<svg version="1.1" id="Layer_1" xmlns="http://www.w3.org/2000/svg" xmlns:xlink="http://www.w3.org/1999/xlink" x="0px" y="0px"
	 width="30.348px" height="30.349px" viewBox="0 0 30.348 30.349" enable-background="new 0 0 30.348 30.349" xml:space="preserve">
<g>
	<path fill="#527FA4" d="M15.174,13.132c-3.08,0-5.586,2.506-5.586,5.587c0,3.08,2.506,5.586,5.586,5.586
		c3.081,0,5.588-2.506,5.588-5.586C20.762,15.638,18.255,13.132,15.174,13.132z"/>
	<path fill="#527FA4" d="M25.803,3.543l-2.662,0C22.683,1.52,20.877,0,18.717,0h-3.544c-2.16,0-3.966,1.52-4.424,3.544H4.543
		C2.038,3.544,0,5.583,0,8.088v17.717c0,2.505,2.038,4.544,4.544,4.544h21.259c2.506,0,4.544-2.039,4.544-4.544l0.001-17.718
		C30.348,5.582,28.309,3.543,25.803,3.543z M15.174,3.543h3.543v2h-3.543V3.543z M3.768,10.146c0-0.979,0.792-1.772,1.771-1.772
		c0.978,0,1.771,0.793,1.771,1.772s-0.793,1.772-1.771,1.772C4.56,11.918,3.768,11.125,3.768,10.146z M15.174,27.305
		c-4.734,0-8.586-3.852-8.586-8.586c0-4.735,3.852-8.587,8.586-8.587c4.735,0,8.588,3.852,8.588,8.587
		C23.762,23.453,19.909,27.305,15.174,27.305z"/>
</g>
</svg>
